<?xml version="1.0" encoding="utf-8"?>
<!-- Generator: Adobe Illustrator 22.1.0, SVG Export Plug-In . SVG Version: 6.00 Build 0)  -->
<svg version="1.1" id="Layer_1" xmlns="http://www.w3.org/2000/svg" xmlns:xlink="http://www.w3.org/1999/xlink" x="0px" y="0px"
	 viewBox="0 0 135 101" style="enable-background:new 0 0 135 101;" xml:space="preserve">
<path d="M37.1,7.2C27.5,21.6,17.9,36,8.2,50.5C17.9,65,27.5,79.4,37.1,93.8c0,2.4,0,4.8,0,7.2c-1.5,0-3,0-4.5,0
	c-0.5-0.6-1.1-1.1-1.5-1.8C20.7,83.6,10.4,68,0,52.4c0-1.3,0-2.6,0-3.9c0.6-1,1.3-2.1,1.9-3.1c9.4-14.1,18.8-28.3,28.3-42.4
	C30.9,2,31.8,1,32.6,0c1.5,0,3,0,4.5,0C37.1,2.4,37.1,4.8,37.1,7.2z"/>
<path d="M52.9,7.2C62.5,21.6,72.1,36,81.8,50.5C72.1,65,62.5,79.4,52.9,93.8c0,2.4,0,4.8,0,7.2c1.5,0,3,0,4.5,0
	c0.5-0.6,1.1-1.1,1.5-1.8C69.3,83.6,79.6,68,90,52.4c0-1.3,0-2.6,0-3.9c-0.6-1-1.3-2.1-1.9-3.1C78.6,31.3,69.2,17.2,59.8,3.1
	C59.1,2,58.2,1,57.4,0c-1.5,0-3,0-4.5,0C52.9,2.4,52.9,4.8,52.9,7.2z"/>
<path d="M127.1,22.2c-0.5-0.5-1.1-1-1.6-1.5c-3.2-3.2-6.4-6.4-9.6-9.6c-0.3-0.3-0.5-0.5-1-1c-0.4,0.5-0.7,0.9-1,1.3
	c-3.2,3.3-6.5,6.5-9.7,9.8c-0.4,0.4-0.8,0.7-1.1,1c-0.6,0-1.2,0-1.8,0c0-0.6,0-1.2,0-1.8c0.3-0.4,0.6-0.8,1-1.1
	c4.1-4.1,8.2-8.2,12.3-12.4c0.4,0,0.8,0,1.2,0c4.1,4.2,8.3,8.3,12.4,12.5c1.2,1.2,1.2,1.7,0.1,2.9C127.8,22.2,127.5,22.2,127.1,22.2
	z"/>
<path d="M127.1,27.8c-0.5,0.5-1.1,1-1.6,1.5c-3.2,3.2-6.4,6.4-9.6,9.6c-0.3,0.3-0.5,0.5-1,1c-0.4-0.5-0.7-0.9-1-1.3
	c-3.2-3.3-6.5-6.5-9.7-9.8c-0.4-0.4-0.8-0.7-1.1-1c-0.6,0-1.2,0-1.8,0c0,0.6,0,1.2,0,1.8c0.3,0.4,0.6,0.8,1,1.1
	c4.1,4.1,8.2,8.2,12.3,12.4c0.4,0,0.8,0,1.2,0c4.1-4.2,8.3-8.3,12.4-12.5c1.2-1.2,1.2-1.7,0.1-2.9C127.8,27.8,127.5,27.8,127.1,27.8
	z"/>
<path d="M117.4,61.4c0.5,0.5,1,1.1,1.5,1.6c3.2,3.2,6.4,6.4,9.6,9.6c0.3,0.3,0.5,0.5,1,1c-0.5,0.4-0.9,0.7-1.3,1
	c-3.3,3.2-6.5,6.5-9.8,9.7c-0.4,0.4-0.7,0.8-1,1.1c0,0.6,0,1.2,0,1.8c0.6,0,1.2,0,1.8,0c0.4-0.3,0.8-0.6,1.1-1
	c4.1-4.1,8.2-8.2,12.4-12.3c0-0.4,0-0.8,0-1.2c-4.2-4.1-8.3-8.3-12.5-12.4c-1.2-1.2-1.7-1.2-2.9-0.1
	C117.4,60.8,117.4,61.1,117.4,61.4z"/>
<path d="M111.7,61.4c-0.5,0.5-1,1.1-1.5,1.6c-3.2,3.2-6.4,6.4-9.6,9.6c-0.3,0.3-0.5,0.5-1,1c0.5,0.4,0.9,0.7,1.3,1
	c3.3,3.2,6.5,6.5,9.8,9.7c0.4,0.4,0.7,0.8,1,1.1c0,0.6,0,1.2,0,1.8c-0.6,0-1.2,0-1.8,0c-0.4-0.3-0.8-0.6-1.1-1
	c-4.1-4.1-8.2-8.2-12.4-12.3c0-0.4,0-0.8,0-1.2c4.2-4.1,8.3-8.3,12.5-12.4c1.2-1.2,1.7-1.2,2.9-0.1
	C111.7,60.8,111.7,61.1,111.7,61.4z"/>
</svg>
