<svg id="Layer_1" data-name="Layer 1" xmlns="http://www.w3.org/2000/svg" viewBox="0 0 330 77" class="navLogoSVG">
  <defs>
    <style>
      .navLogoSVG .cls-1{fill:#75787b;}
      .navLogoSVG .cls-2{fill:#a02891;}</style>
  </defs>
  <title>BioCare Logo</title>
  <path class="cls-1" d="M243.87484,307.68587h-7.65918V284.9217h7.444c9.49194,0,14.56341,3.99186,14.56341,11.54345,0,7.44224-5.28665,11.22072-14.34822,11.22072m-7.65918-52.64775h7.22881c8.62933,0,12.18907,3.66727,12.18907,9.60134,0,6.3662-4.42229,10.14112-12.83829,10.14112h-6.57958Zm21.89981,23.94951c6.472-2.69887,10.78849-7.76853,10.78849-15.53355,0-11.76044-7.98377-19.31209-24.70633-19.31209H222.5148v74.43641h21.36c17.47752,0,28.049-7.01006,28.049-21.68281,0-9.92412-5.50184-15.32017-13.80839-17.90795" transform="translate(-222.5148 -242.84847)"/>
  <path class="cls-1" d="M284.81686,257.73464c-4.31469,0-7.76683-3.0199-7.76683-7.3346a7.71473,7.71473,0,0,1,15.426,0,7.35059,7.35059,0,0,1-7.65918,7.3346" transform="translate(-222.5148 -242.84847)"/>
  <rect class="cls-1" x="55.72062" y="23.62474" width="12.94583" height="52.10617"/>
  <path class="cls-1" d="M322.09649,309.08551c-7.54984,0-11.75869-7.01-11.75869-16.50551,0-9.70894,4.09951-16.615,11.75869-16.615,7.76858,0,12.08322,7.01537,12.08322,16.615,0,9.70894-4.09945,16.50551-12.08322,16.50551m.1094-43.69022c-14.133,0-24.48934,10.247-24.48934,27.18471s10.24871,27.07881,24.37994,27.07881c14.24057,0,24.70627-10.14112,24.70627-27.07881s-10.35631-27.18471-24.59687-27.18471" transform="translate(-222.5148 -242.84847)"/>
  <path class="cls-1" d="M386.95093,319.87323c-21.577,0-35.16848-15.21077-35.16848-38.40351,0-23.087,13.916-38.62056,35.59885-38.62056,8.41415,0,14.888,1.94035,20.38983,5.39244l-2.04975,13.48566c-4.85447-3.66913-10.57149-6.58144-17.8003-6.58144-13.48561,0-21.57522,10.14112-21.57522,26.21631,0,16.18092,8.4142,26.10685,21.79041,26.10685,7.01362,0,13.16108-2.58953,18.87991-6.47379l1.9421,12.51365a40.69373,40.69373,0,0,1-22.00735,6.36439" transform="translate(-222.5148 -242.84847)"/>
  <path class="cls-1" d="M484.80313,288.69673v29.88183H471.85724V266.47414H482.861l1.61932,10.4657c3.45214-6.04342,8.62939-11.11307,16.72075-11.54525l2.04975,12.83824a23.93173,23.93173,0,0,0-18.44767,10.4639" transform="translate(-222.5148 -242.84847)"/>
  <path class="cls-1" d="M518.81329,286.97227c.972-8.416,5.28665-12.62486,10.4657-12.62486,6.25685,0,9.49194,4.53349,10.35631,12.62486Zm33.44331,4.96026c0-14.78034-7.01182-26.53723-22.65482-26.53723-13.5932,0-23.73251,10.24691-23.73251,27.18465,0,18.77226,10.89427,27.07886,25.45948,27.07886a35.5995,35.5995,0,0,0,20.8202-6.36625L550.639,303.15325c-5.71708,3.99186-11.21892,6.472-17.9079,6.472-7.98383,0-13.48566-4.31469-14.133-14.56521H552.149c0-.75321.10765-2.04795.10765-3.12755" transform="translate(-222.5148 -242.84847)"/>
  <path class="cls-2" d="M430.23714,284.35138a17.11386,17.11386,0,0,0,0,34.22766l34.8151-.00066V282.47922a17.06755,17.06755,0,0,0-33.6782-3.93812h16.79967v.01434a3.87266,3.87266,0,0,1,3.73365,3.861v22.86889l-21.64155-.00074a3.8771,3.8771,0,1,1,0-7.75419h13.88731v-13.179Z" transform="translate(-222.5148 -242.84847)"/>
</svg>